<?xml version="1.0" encoding="UTF-8"?>
<svg width="700pt" height="700pt" version="1.1" viewBox="0 0 700 700" xmlns="http://www.w3.org/2000/svg">
 <path d="m237.76 389.53c-0.53125-1.2812-0.95312-2.6289-1.2461-4.0312l-42.242-201.31c-0.30078-0.60156-0.54688-1.2422-0.73828-1.9102l-20.055-70.277h-47.492c-6.1758 0-11.184-5.0156-11.184-11.199 0-6.1875 5.0078-11.199 11.184-11.199h64.367l19.434 68.102c0.55469-0.16016 1.1211-0.30469 1.6953-0.42578 1.5117-0.31641 3.0547-0.47656 4.6016-0.47656h357.95c12.355 0 22.371 10.027 22.371 22.398 0 1.4961-0.14844 2.9883-0.44531 4.4531l-37.043 182.89c-2.0039 9.8906-10.363 17.219-20.422 17.898l-278.58 18.801c-1.3359 0.089843-2.6562 0.058593-3.9492-0.082032l-11.207 22.449h295.11c6.1758 0 11.184 5.0117 11.184 11.199 0 6.1836-5.0078 11.199-11.184 11.199h-313.2c-8.3125 0-13.723-8.7617-10.004-16.207zm-21.676-210.33 42.324 201.69 278.58-18.801 37.043-182.89zm55.32 324.8c-12.355 0-22.375-10.027-22.375-22.398 0-12.371 10.02-22.402 22.375-22.402 12.355 0 22.371 10.031 22.371 22.402 0 12.371-10.016 22.398-22.371 22.398zm246.09 0c-12.355 0-22.371-10.027-22.371-22.398 0-12.371 10.016-22.402 22.371-22.402s22.371 10.031 22.371 22.402c0 12.371-10.016 22.398-22.371 22.398zm-122.69-380.8c0 6.1875-5.0156 11.199-11.199 11.199-6.1875 0-11.203-5.0117-11.203-11.199v-67.199c0-6.1875 5.0156-11.199 11.203-11.199 6.1836 0 11.199 5.0117 11.199 11.199zm-61.148-6.3047c2.6133 5.6055 0.1875 12.27-5.418 14.883-5.6055 2.6133-12.27 0.1875-14.887-5.418l-14.199-30.453c-2.6133-5.6055-0.1875-12.27 5.418-14.883 5.6055-2.6133 12.27-0.1875 14.883 5.418zm120.2 9.4648c-2.6133 5.6055-9.2773 8.0312-14.887 5.418-5.6055-2.6133-8.0312-9.2773-5.4141-14.883l14.199-30.453c2.6133-5.6055 9.2773-8.0312 14.883-5.418 5.6055 2.6133 8.0312 9.2773 5.418 14.883z"/>
</svg>
